PathFileType	4	(X/Y/Z)	pose_F01_0-91.trc
DataRate	CameraRate	NumFrames	NumMarkers	Units	OrigDataRate	OrigDataStartFrame	OrigNumFrames
30	30	5	21	m	30	79	91
Frame#	Time	CHip			RHip			RKnee			RAnkle			RBigToe			RSmallToe			RHeel			LHip			LKnee			LAnkle			LBigToe			LSmallToe			LHeel			Neck			Nose			RShoulder			RElbow			RWrist			LShoulder			LElbow			LWrist			
		X1	Y1	Z1	X2	Y2	Z2	X3	Y3	Z3	X4	Y4	Z4	X5	Y5	Z5	X6	Y6	Z6	X7	Y7	Z7	X8	Y8	Z8	X9	Y9	Z9	X10	Y10	Z10	X11	Y11	Z11	X12	Y12	Z12	X13	Y13	Z13	X14	Y14	Z14	X15	Y15	Z15	X16	Y16	Z16	X17	Y17	Z17	X18	Y18	Z18	X19	Y19	Z19	X20	Y20	Z20	X21	Y21	Z21	
79	2.6333333333333333	-0.16323042518450748	1.837378436960378	-0.6844211284921972	-0.18100992928870901	1.835255804124394	-0.6152850131484623	-0.19507212434068927	1.7085065912782131	-0.567408436006922	-0.20836340440048093	1.5768619458458084	-0.5028158784571501	-0.2382872633468669	1.537776622227476	-0.4672111966436683	-0.23368100061633115	1.5481826214237138	-0.4459641650426447	-0.20617816596832822	1.5680052801508535	-0.508559242947319	-0.14396807364203792	1.8405370817709297	-0.7535177937407763	-0.13548917215249215	1.7128929775638215	-0.7521885200268462	-0.1331694756193345	1.5851673214620983	-0.7554627861301103	-0.1588010480135327	1.5474259215421073	-0.7540325124452832	-0.2657658760239408	1.4780583096651994	-1.2669170808317036	-0.12485416754383974	1.5742751700393838	-0.7541613107864642	-0.1614230020146874	1.9908614930477637	-0.6862133433148195	-0.18911805644152735	2.055789482264311	-0.6596848883451153	-0.18255814547836413	1.982818149186116	-0.5897690767036204	-0.1840541654311105	1.9043034686010756	-0.5565989459140124	-0.20577468468208573	1.9031348573453015	-0.6218775896562883	-0.13613510380052768	2.0001545756250736	-0.7875616786561555	-0.11266327752768886	1.928256861779229	-0.851653994298155	-0.18071229188451451	1.9110860804995256	-0.7381179771584897
80	2.6666666666666665	-0.15713312902304424	1.8378994077739135	-0.703345469282286	-0.17834910745272856	1.8360891609351215	-0.6351612014051484	-0.1954222454881728	1.7034881498705492	-0.5752315126015071	-0.2093205637384478	1.577102784825488	-0.5060517901648006	-0.23866126963578316	1.5368142386550794	-0.46663051604063005	-0.2336890057883066	1.5481197370532331	-0.4459628371965228	-0.20428188971965877	1.5687009825410076	-0.5106537772044215	-0.1402194433614642	1.8414471970249073	-0.7731436940174696	-0.13570231616282663	1.7115194003633805	-0.763781664003022	-0.13327566713615338	1.585280764655571	-0.7554979182036398	-0.15868835021249805	1.5464970002567275	-0.7542780771303236	-0.2665945824146784	1.479486199784392	-1.2699597777572047	-0.12644605191962496	1.5746066351701482	-0.7487811285551665	-0.15597522173089964	1.9910695761328	-0.7079867703819807	-0.183936641964887	2.056254477299672	-0.681028332500404	-0.1798874608034832	1.980961780465187	-0.6090169816902339	-0.18171666111827237	1.903547551083323	-0.5762119098001551	-0.1949891299215278	1.9046391331748882	-0.6539911261546996	-0.12920577758589508	2.0006967567152603	-0.8061511385347531	-0.10365341126299266	1.9277180427425786	-0.875821024341765	-0.16575104444547106	1.912286486478507	-0.7693063668388558
81	2.7	-0.15450638854403642	1.838691071045666	-0.7263559891561545	-0.17307094862370784	1.8352070923881179	-0.6573367823432318	-0.19458961192967655	1.707715469583212	-0.5939088639277244	-0.20837981383020615	1.5775664145215271	-0.511645049520537	-0.23950811339490247	1.538095438089658	-0.4706293330568234	-0.23477244615804196	1.548006835577012	-0.4494012113173164	-0.20351637433924422	1.5680574643587728	-0.5155340137834308	-0.13349046667982625	1.8404106610263469	-0.7920345913473578	-0.13409255370461037	1.7134458968262407	-0.769911506694287	-0.13429280326143495	1.5840859280939488	-0.7580561170323235	-0.28151677590292623	1.4805578093357634	-1.2336257760652152	-0.2657225261581564	1.478767697293904	-1.2667989410496758	-0.1254762729677505	1.5748715839092777	-0.7534014042076901	-0.14881048564690222	1.9894586263618537	-0.7232409629625565	-0.17919697221285272	2.054291607025421	-0.6936452163328946	-0.1739923717638827	1.9801796155295117	-0.6272144883314958	-0.1801992412783751	1.9021249856364124	-0.5903328548464111	-0.18660735692319444	1.9069541227097437	-0.6752698934718527	-0.12226883177474432	1.9988758635101105	-0.8244604148065809	-0.09794009519331455	1.9280517789245033	-0.8892288512073163	-0.16536622004019144	1.9139417599152917	-0.7896998979819865
82	2.7333333333333334	-0.15131641264621826	1.8361547508677378	-0.737162516546799	-0.16824314998536583	1.8341597017624505	-0.6704714921512095	-0.1924838675200907	1.7039720146035242	-0.6041936381519262	-0.20616127161039932	1.5763326986002786	-0.5141779337133285	-0.23898190214678555	1.5408235734997873	-0.47583822993578717	-0.23325943422649129	1.5508436108073451	-0.45146642056949454	-0.20308884971287766	1.5684551975967125	-0.5164642439745804	-0.13421011575604203	1.8381644713170233	-0.8066424443820377	-0.13075470016178556	1.7069550421777777	-0.7765493078635365	-0.13441787407206277	1.5845387850126171	-0.7580351552703585	-0.15901259487807207	1.5485475792960144	-0.7541245629746242	-0.2666268725535422	1.477728715150238	-1.2702330624852443	-0.12648278825773382	1.574647827001324	-0.748712446152417	-0.14530752209500233	1.9897241557210126	-0.7425388162606856	-0.1729029545775276	2.0547246375231576	-0.7119828475128221	-0.16920684261345864	1.9817730284823065	-0.64055674307778	-0.1701422199908469	1.902784102186731	-0.6137757142974889	-0.1808079989083456	1.907491997633176	-0.6854206203319739	-0.11741467900799869	1.9989339417102896	-0.8407633073671613	-0.0898943974193428	1.9272282334063928	-0.9048131599070891	-1.2162617333832308	1.8301242852128206	0.269264036165699
83	2.7666666666666666	-0.1477015991928946	1.8364274122018083	-0.7451152844003045	-0.1676925941411974	1.8344851533131048	-0.6791813745310205	-0.18862951014031043	1.7067243925652176	-0.6128855181988357	-0.2073459844136416	1.575163224619458	-0.517199775410941	-0.2391829684498803	1.5418805449851705	-0.47564826567695634	-0.23422394609638483	1.5506116851675027	-0.45492585894352056	-0.20116208723994505	1.567138756170367	-0.5269587872055367	-0.13238499569289283	1.8385502493603698	-0.8122354149069112	-0.1289824023406275	1.7085444727125592	-0.7824809129692452	-0.13673938366532648	1.5815696064398606	-0.7554202373704009	-0.15879496133983448	1.547693271701982	-0.7541191198962691	-0.26661150273960427	1.478124033526607	-1.2701350158135016	-0.1275968573072975	1.5730714245342414	-0.7512180658764299	-0.13999226938941708	1.9913128568640557	-0.7557336510524497	-0.170847783588511	2.0542993606236712	-0.7252460091179287	-0.16530024128757773	1.982274420220113	-0.6568500482517511	-0.17293409240839513	1.9040343081331772	-0.6150175405115571	-0.17500864089349677	1.9080298725566083	-0.6955713471920951	-0.11408555369608975	1.9981252729526118	-0.8512756440461913	-0.08951436910451992	1.9262461950553975	-0.916259084153365	-0.1538529744719914	1.9121130933402384	-0.8011766369504354
